<svg width="16" height="17" viewBox="0 0 16 17" fill="none" xmlns="http://www.w3.org/2000/svg">
<path fill-rule="evenodd" clip-rule="evenodd" d="M8.00015 2.2998C4.31828 2.2998 1.3335 5.28455 1.3335 8.96646C1.3335 12.6483 4.31828 15.6331 8.00015 15.6331C11.6821 15.6331 14.6668 12.6484 14.6668 8.96646C14.6668 5.28455 11.6821 2.2998 8.00015 2.2998ZM8.00015 14.2998C5.05937 14.2998 2.66684 11.9073 2.66684 8.96646C2.66684 6.02565 5.05934 3.63315 8.00015 3.63315C10.941 3.63315 13.3335 6.02565 13.3335 8.96646C13.3335 11.9073 10.941 14.2998 8.00015 14.2998ZM8.83496 6.2998C8.83496 6.78318 8.48303 7.13315 8.00693 7.13315C7.51159 7.13315 7.16828 6.78315 7.16828 6.29055C7.16828 5.81712 7.52087 5.46649 8.00693 5.46649C8.48303 5.46649 8.83496 5.81712 8.83496 6.2998ZM7.33496 8.2998H8.66828V12.2998H7.33496V8.2998Z" fill="#282828"/>
</svg>
