<svg width="25" height="24" viewBox="0 0 25 24" fill="none" xmlns="http://www.w3.org/2000/svg">
<path d="M15.3 8H17.3M15.3 12H17.3M12.3 16H7.30005M21.3 12V6C21.3 4.89543 20.4046 4 19.3 4H5.30005C4.19548 4 3.30005 4.89543 3.30005 6V18C3.30005 19.1046 4.19548 20 5.30005 20H12.3M7.30005 8V12H11.3V8H7.30005Z" stroke="#8A8A8A" stroke-width="2" stroke-linecap="round" stroke-linejoin="round"/>
<path d="M19.5678 19.2678C20.0202 18.8154 20.3 18.1904 20.3 17.5C20.3 16.1193 19.1807 15 17.8 15C16.4193 15 15.3 16.1193 15.3 17.5C15.3 18.8807 16.4193 20 17.8 20C18.4904 20 19.1154 19.7202 19.5678 19.2678ZM19.5678 19.2678L21.3 21" stroke="#8A8A8A" stroke-width="2" stroke-linecap="round" stroke-linejoin="round"/>
</svg>
