<svg width="20" height="20" viewBox="0 0 20 20" fill="none" xmlns="http://www.w3.org/2000/svg">
<path d="M7.2575 0C6.87855 1.45113e-05 6.5065 0.103961 6.1799 0.301069C5.8533 0.498176 5.58403 0.781273 5.4 1.12103L4.757 2.30769H2.875C2.1125 2.30769 1.38124 2.61836 0.842068 3.17135C0.302901 3.72434 0 4.47436 0 5.25641V13.9744C0 14.7564 0.302901 15.5064 0.842068 16.0594C1.38124 16.6124 2.1125 16.9231 2.875 16.9231H8.498C8.33036 16.5098 8.20372 16.0803 8.12 15.641H2.875C2.44402 15.641 2.0307 15.4654 1.72595 15.1529C1.42121 14.8403 1.25 14.4164 1.25 13.9744V5.25641C1.25 4.81438 1.42121 4.39046 1.72595 4.0779C2.0307 3.76534 2.44402 3.58974 2.875 3.58974H5.4925L6.4925 1.74359C6.5683 1.60368 6.6792 1.48711 6.81371 1.40596C6.94822 1.3248 7.10144 1.28202 7.2575 1.28205H10.7425C10.8986 1.28202 11.0518 1.3248 11.1863 1.40596C11.3208 1.48711 11.4317 1.60368 11.5075 1.74359L12.5075 3.58974H15.125C15.556 3.58974 15.9693 3.76534 16.274 4.0779C16.5788 4.39046 16.75 4.81438 16.75 5.25641V8.10256C17.191 8.26923 17.61 8.4841 18 8.74051V5.25641C18 4.47436 17.6971 3.72434 17.1579 3.17135C16.6188 2.61836 15.8875 2.30769 15.125 2.30769H13.243L12.6 1.12103C12.416 0.781273 12.1467 0.498176 11.8201 0.301069C11.4935 0.103961 11.1214 1.45113e-05 10.7425 0H7.2575ZM9 5.12821C9.83818 5.12796 10.6553 5.39777 11.3358 5.89954C12.0164 6.40131 12.5261 7.10968 12.793 7.92462C12.3855 8.03795 11.994 8.19128 11.623 8.37949C11.477 7.90701 11.2121 7.48234 10.8551 7.14826C10.4981 6.81419 10.0616 6.5825 9.58947 6.47654C9.11738 6.37058 8.6264 6.39409 8.16598 6.54469C7.70557 6.6953 7.29198 6.96769 6.96687 7.33442C6.64177 7.70115 6.41663 8.14928 6.31414 8.63366C6.21164 9.11804 6.23541 9.62157 6.38305 10.0935C6.53069 10.5655 6.79699 10.9892 7.15511 11.322C7.51324 11.6548 7.95055 11.8849 8.423 11.9892C8.276 12.3851 8.1645 12.7995 8.093 13.2277C7.13559 13.0004 6.29324 12.4197 5.72665 11.5961C5.16005 10.7726 4.90886 9.76398 5.02099 8.76265C5.13312 7.76132 5.60073 6.83736 6.33461 6.16703C7.06849 5.4967 8.01728 5.12691 9 5.12821ZM20 14.359C20 17.4744 17.5375 20 14.5 20C11.4625 20 9 17.4744 9 14.359C9 11.2436 11.4625 8.71795 14.5 8.71795C17.5375 8.71795 20 11.2436 20 14.359ZM15 11.2821C15 11.146 14.9473 11.0156 14.8536 10.9194C14.7598 10.8233 14.6326 10.7692 14.5 10.7692C14.3674 10.7692 14.2402 10.8233 14.1464 10.9194C14.0527 11.0156 14 11.146 14 11.2821V13.8462H11.5C11.3674 13.8462 11.2402 13.9002 11.1464 13.9964C11.0527 14.0925 11 14.223 11 14.359C11 14.495 11.0527 14.6254 11.1464 14.7216C11.2402 14.8178 11.3674 14.8718 11.5 14.8718H14V17.4359C14 17.5719 14.0527 17.7023 14.1464 17.7985C14.2402 17.8947 14.3674 17.9487 14.5 17.9487C14.6326 17.9487 14.7598 17.8947 14.8536 17.7985C14.9473 17.7023 15 17.5719 15 17.4359V14.8718H17.5C17.6326 14.8718 17.7598 14.8178 17.8536 14.7216C17.9473 14.6254 18 14.495 18 14.359C18 14.223 17.9473 14.0925 17.8536 13.9964C17.7598 13.9002 17.6326 13.8462 17.5 13.8462H15V11.2821Z" fill="white"/>
</svg>
