<svg width="16" height="16" viewBox="0 0 16 16" fill="none" xmlns="http://www.w3.org/2000/svg">
<path d="M3.30514 3.32037C4.38807 2.23386 5.81432 1.55659 7.34074 1.40402C8.86716 1.25145 10.3992 1.63303 11.6758 2.4837C12.9524 3.33438 13.8943 4.60148 14.3412 6.06899C14.788 7.5365 14.712 9.11356 14.1261 10.5313C13.5402 11.949 12.4807 13.1197 11.1283 13.8436C9.77585 14.5676 8.21417 14.8001 6.7095 14.5014C5.20482 14.2028 3.85031 13.3915 2.8769 12.2059C1.90348 11.0202 1.37142 9.5337 1.37143 7.99968C1.37143 7.81782 1.29918 7.6434 1.17059 7.51481C1.04199 7.38621 0.867577 7.31397 0.685714 7.31397C0.503851 7.31397 0.329437 7.38621 0.200841 7.51481C0.0722446 7.6434 6.39589e-09 7.81782 6.39589e-09 7.99968C-7.39964e-05 9.85113 0.642034 11.6453 1.81685 13.0763C2.99166 14.5073 4.62645 15.4864 6.44247 15.8469C8.2585 16.2074 10.1433 15.9268 11.7756 15.053C13.4079 14.1792 14.6866 12.7663 15.3936 11.0551C16.1007 9.34402 16.1924 7.44062 15.653 5.66947C15.1137 3.89832 13.9767 2.36908 12.4359 1.34247C10.8951 0.315864 9.04598 -0.144545 7.20371 0.0397406C5.36145 0.224026 3.64014 1.0416 2.33326 2.35306C2.31064 2.37629 2.28928 2.4007 2.26926 2.4262L1.12 1.27603C1.05854 1.21443 0.980771 1.17165 0.895837 1.15272C0.810902 1.13379 0.722329 1.1395 0.640525 1.16916C0.55872 1.19883 0.487082 1.25123 0.43403 1.32021C0.380977 1.38918 0.348713 1.47187 0.341028 1.55855L0.0182857 5.1142C0.0122533 5.18091 0.020953 5.24812 0.0437692 5.3111C0.0665854 5.37407 0.102961 5.43126 0.150322 5.47862C0.197683 5.52598 0.254873 5.56236 0.317846 5.58517C0.380819 5.60799 0.448036 5.61669 0.514743 5.61066L4.07131 5.287C4.15765 5.27886 4.2399 5.24634 4.30845 5.19322C4.377 5.1401 4.42902 5.06858 4.45845 4.987C4.48788 4.90543 4.49349 4.81716 4.47465 4.73251C4.4558 4.64787 4.41326 4.57032 4.352 4.50894L3.22926 3.3862C3.25574 3.36567 3.28107 3.34369 3.30514 3.32037Z" fill="#282828"/>
<path d="M8.68564 3.42839C8.68564 3.24653 8.61339 3.07211 8.4848 2.94352C8.3562 2.81492 8.18179 2.74268 7.99992 2.74268C7.81806 2.74268 7.64365 2.81492 7.51505 2.94352C7.38645 3.07211 7.31421 3.24653 7.31421 3.42839V7.99981C7.31416 8.11607 7.34367 8.23043 7.39997 8.33215C7.45626 8.43387 7.5375 8.5196 7.63604 8.58129L10.3789 10.2956C10.5331 10.3921 10.7194 10.4234 10.8966 10.3826C10.9844 10.3624 11.0674 10.3251 11.1408 10.2728C11.2141 10.2205 11.2765 10.1543 11.3243 10.078C11.3721 10.0016 11.4043 9.91659 11.4193 9.82775C11.4342 9.73892 11.4315 9.64801 11.4113 9.56023C11.3911 9.47244 11.3538 9.38949 11.3015 9.31612C11.2492 9.24275 11.183 9.18039 11.1067 9.13261L8.68564 7.61947V3.42839Z" fill="#282828"/>
</svg>
