<svg width="14" height="22" viewBox="0 0 14 22" fill="none" xmlns="http://www.w3.org/2000/svg">
<path d="M6.25 20C6.25 20.4142 6.58579 20.75 7 20.75C7.41421 20.75 7.75 20.4142 7.75 20H6.25ZM7.75 4C7.75 3.58579 7.41421 3.25 7 3.25C6.58579 3.25 6.25 3.58579 6.25 4H7.75ZM1.46731 7.47204C1.17573 7.76624 1.17784 8.24111 1.47204 8.53269C1.76624 8.82427 2.24111 8.82216 2.53269 8.52796L1.46731 7.47204ZM3.74731 6.23703L4.28 6.76499V6.76499L3.74731 6.23703ZM10.2527 6.23703L10.7854 5.70907V5.70907L10.2527 6.23703ZM11.4673 8.52796C11.7589 8.82216 12.2338 8.82428 12.528 8.53269C12.8222 8.24111 12.8243 7.76624 12.5327 7.47204L11.4673 8.52796ZM6.68667 4.01989L6.59184 3.27591L6.59184 3.27591L6.68667 4.01989ZM7.31333 4.01989L7.40816 3.27591L7.40816 3.27591L7.31333 4.01989ZM7.75 20L7.75 4H6.25L6.25 20H7.75ZM2.53269 8.52796L4.28 6.76499L3.21462 5.70907L1.46731 7.47204L2.53269 8.52796ZM9.72 6.76499L11.4673 8.52796L12.5327 7.47204L10.7854 5.70907L9.72 6.76499ZM4.28 6.76499C4.98914 6.0495 5.47718 5.55869 5.89071 5.22659C6.2924 4.904 6.55042 4.79332 6.7815 4.76387L6.59184 3.27591C5.97372 3.35469 5.45878 3.64963 4.95146 4.05706C4.45597 4.45498 3.89892 5.01863 3.21462 5.70907L4.28 6.76499ZM10.7854 5.70907C10.1011 5.01863 9.54403 4.45498 9.04854 4.05706C8.54122 3.64963 8.02628 3.3547 7.40816 3.27591L7.2185 4.76387C7.44958 4.79332 7.7076 4.904 8.10929 5.22659C8.52282 5.55869 9.01086 6.0495 9.72 6.76499L10.7854 5.70907ZM6.7815 4.76387C6.92659 4.74538 7.07341 4.74538 7.2185 4.76387L7.40816 3.27591C7.13714 3.24136 6.86286 3.24136 6.59184 3.27591L6.7815 4.76387Z" fill="white"/>
</svg>
